<svg xmlns="http://www.w3.org/2000/svg" width="1200" height="800" viewBox="0 0 1200 800"><rect width="100%" height="100%" fill="#DDDDDD"/><path fill="#999999" d="M285.41 339.76h-23.34v-79.38l-8.41-1.32q-2.74-.57-4.39-1.94-1.66-1.37-1.66-3.92v-9.55h14.46v-7.18q0-8.31 2.5-14.93 2.51-6.61 7.19-11.25 4.67-4.63 11.38-7.08 6.71-2.46 15.12-2.46 6.71 0 12.48 1.8l-.47 11.71q-.1 1.33-.76 2.13t-1.75 1.23q-1.09.42-2.5.57-1.42.14-3.03.14-4.15 0-7.42.9-3.26.89-5.52 3.11-2.27 2.22-3.45 5.86t-1.18 9.03v6.42h25.23v16.64h-24.48zm56.04-59.63h44.04q0-4.54-1.28-8.55-1.27-4.02-3.83-7.04-2.55-3.03-6.47-4.77-3.92-1.75-9.12-1.75-10.11 0-15.92 5.76-5.81 5.77-7.42 16.35m59.54 14.08h-60.01q.57 7.47 2.64 12.9 2.08 5.43 5.49 8.98 3.4 3.54 8.07 5.29 4.68 1.75 10.35 1.75t9.78-1.33q4.11-1.32 7.19-2.92 3.07-1.61 5.38-2.93 2.32-1.33 4.49-1.33 2.93 0 4.35 2.18l6.71 8.5q-3.88 4.54-8.7 7.61t-10.06 4.91q-5.25 1.85-10.68 2.6-5.43.76-10.54.76-10.11 0-18.8-3.36-8.7-3.35-15.12-9.92-6.43-6.57-10.11-16.25-3.69-9.69-3.69-22.45 0-9.92 3.21-18.66 3.22-8.74 9.22-15.22 6-6.47 14.65-10.25 8.64-3.78 19.51-3.78 9.17 0 16.92 2.93 7.74 2.93 13.32 8.55 5.58 5.63 8.74 13.8 3.17 8.17 3.17 18.66 0 5.3-1.14 7.14-1.13 1.84-4.34 1.84m74.18 20.51v-16.35q-10.11.47-17.01 1.75-6.9 1.27-11.06 3.26-4.16 1.98-5.95 4.63-1.8 2.64-1.8 5.76 0 6.15 3.64 8.79 3.64 2.65 9.5 2.65 7.18 0 12.42-2.6 5.25-2.6 10.26-7.89m-49.33-50.94-4.16-7.46q16.73-15.31 40.26-15.31 8.5 0 15.21 2.79 6.71 2.78 11.34 7.74 4.63 4.97 7.04 11.86 2.41 6.9 2.41 15.12v61.24h-10.58q-3.31 0-5.1-.99-1.8-.99-2.84-4.02l-2.08-6.99q-3.68 3.31-7.18 5.81t-7.28 4.21q-3.78 1.7-8.08 2.59-4.3.9-9.49.9-6.15 0-11.34-1.65-5.2-1.66-8.98-4.96-3.78-3.31-5.86-8.22-2.08-4.92-2.08-11.44 0-3.68 1.23-7.32t4.02-6.95q2.78-3.31 7.22-6.24 4.45-2.93 10.92-5.1t15.07-3.54 19.66-1.66v-5.67q0-9.73-4.16-14.41t-12-4.68q-5.67 0-9.4 1.33-3.74 1.32-6.57 2.97-2.84 1.66-5.15 2.98-2.32 1.32-5.15 1.32-2.46 0-4.16-1.27-1.7-1.28-2.74-2.98m126.35 77.49q-12.67 0-19.42-7.13-6.76-7.14-6.76-19.71v-54.14h-9.92q-1.89 0-3.22-1.23-1.32-1.23-1.32-3.69v-9.26l15.59-2.55 4.92-26.46q.47-1.89 1.79-2.93 1.33-1.04 3.4-1.04h12.1v30.52h25.89v16.64h-25.89v52.54q0 4.53 2.22 7.09 2.22 2.55 6.1 2.55 2.17 0 3.63-.52 1.47-.52 2.56-1.09 1.08-.57 1.93-1.09t1.7-.52q1.04 0 1.71.52.66.52 1.41 1.56l7 11.34q-5.11 4.26-11.72 6.43-6.62 2.17-13.7 2.17m98.18-98.47h23.34v96.96h-14.27q-4.63 0-5.86-4.25l-1.6-7.75q-5.96 6.05-13.14 9.78t-16.91 3.73q-7.94 0-14.04-2.69-6.09-2.69-10.25-7.61-4.16-4.91-6.28-11.67-2.13-6.76-2.13-14.88V242.8h23.34v61.62q0 8.88 4.11 13.75 4.11 4.86 12.33 4.86 6.05 0 11.34-2.69 5.3-2.69 10.02-7.42zm67 5.86 1.42 10.96q4.54-8.69 10.77-13.65 6.24-4.96 14.74-4.96 6.71 0 10.78 2.93l-1.51 17.48q-.48 1.7-1.38 2.41-.89.71-2.4.71-1.42 0-4.21-.47-2.79-.48-5.43-.48-3.88 0-6.9 1.14-3.03 1.13-5.44 3.26-2.41 2.12-4.25 5.15-1.84 3.02-3.45 6.9v59.72h-23.34V242.8h13.7q3.59 0 5.01 1.28 1.42 1.27 1.89 4.58m68.33 31.47h44.03q0-4.54-1.27-8.55-1.28-4.02-3.83-7.04-2.55-3.03-6.47-4.77-3.93-1.75-9.12-1.75-10.11 0-15.93 5.76-5.81 5.77-7.41 16.35m59.53 14.08h-60.01q.57 7.47 2.65 12.9t5.48 8.98q3.4 3.54 8.08 5.29t10.35 1.75 9.78-1.33q4.11-1.32 7.18-2.92 3.07-1.61 5.39-2.93 2.31-1.33 4.49-1.33 2.92 0 4.34 2.18l6.71 8.5q-3.87 4.54-8.69 7.61t-10.07 4.91q-5.24 1.85-10.67 2.6-5.44.76-10.54.76-10.11 0-18.81-3.36-8.69-3.35-15.12-9.92-6.42-6.57-10.11-16.25-3.68-9.69-3.68-22.45 0-9.92 3.21-18.66t9.21-15.22q6-6.47 14.65-10.25t19.51-3.78q9.17 0 16.92 2.93t13.32 8.55q5.58 5.63 8.75 13.8 3.16 8.17 3.16 18.66 0 5.3-1.13 7.14-1.14 1.84-4.35 1.84m83.82 16.82v-43.47q-3.97-4.82-8.65-6.8-4.67-1.99-10.06-1.99-5.29 0-9.54 1.99-4.26 1.98-7.28 6t-4.63 10.2q-1.61 6.19-1.61 14.6 0 8.51 1.37 14.42 1.37 5.9 3.92 9.64 2.56 3.73 6.24 5.38 3.69 1.66 8.22 1.66 7.28 0 12.38-3.03 5.11-3.02 9.64-8.6m0-111.7h23.34v140.43h-14.27q-4.63 0-5.86-4.25l-1.98-9.36q-5.86 6.71-13.47 10.87-7.6 4.16-17.71 4.16-7.94 0-14.56-3.31-6.61-3.31-11.39-9.59-4.77-6.29-7.37-15.55-2.59-9.26-2.59-21.17 0-10.77 2.92-20.03 2.93-9.26 8.42-16.06 5.48-6.81 13.13-10.64 7.66-3.82 17.2-3.82 8.13 0 13.89 2.55 5.77 2.55 10.3 6.9zM389.08 429.91v136.65h-25.52V429.91zm50.18 136.65h-23.34V469.6h14.27q4.53 0 5.95 4.26l1.51 7.18q2.55-2.84 5.34-5.2t5.95-4.06q3.17-1.7 6.81-2.7 3.64-.99 7.98-.99 9.17 0 15.08 4.96 5.9 4.96 8.83 13.19 2.27-4.82 5.67-8.27t7.47-5.63q4.06-2.17 8.64-3.21 4.59-1.04 9.22-1.04 8.03 0 14.27 2.46 6.23 2.46 10.49 7.18 4.25 4.72 6.47 11.53 2.22 6.8 2.22 15.59v61.71h-23.34v-61.71q0-9.26-4.06-13.94-4.07-4.67-11.91-4.67-3.59 0-6.66 1.22-3.07 1.23-5.39 3.55-2.31 2.31-3.64 5.81-1.32 3.5-1.32 8.03v61.71h-23.44v-61.71q0-9.73-3.92-14.17t-11.48-4.44q-5.1 0-9.5 2.5-4.39 2.5-8.17 6.85zm186.16-25.04v-16.35q-10.11.47-17.01 1.75-6.9 1.27-11.05 3.26-4.16 1.98-5.96 4.63-1.79 2.64-1.79 5.76 0 6.15 3.64 8.79 3.63 2.65 9.49 2.65 7.19 0 12.43-2.6t10.25-7.89m-49.33-50.94-4.15-7.46q16.72-15.31 40.25-15.31 8.51 0 15.22 2.79 6.71 2.78 11.34 7.74 4.63 4.97 7.04 11.86 2.41 6.9 2.41 15.12v61.24h-10.59q-3.3 0-5.1-.99-1.79-.99-2.83-4.02l-2.08-6.99q-3.69 3.31-7.19 5.81-3.49 2.5-7.27 4.21-3.78 1.7-8.08 2.59-4.3.9-9.5.9-6.14 0-11.34-1.65-5.2-1.66-8.98-4.96-3.78-3.31-5.86-8.22-2.07-4.92-2.07-11.44 0-3.68 1.22-7.32 1.23-3.64 4.02-6.95t7.23-6.24q4.44-2.92 10.91-5.1 6.48-2.17 15.08-3.54t19.65-1.66v-5.67q0-9.73-4.15-14.41-4.16-4.67-12.01-4.67-5.67 0-9.4 1.32t-6.57 2.97q-2.83 1.66-5.15 2.98-2.31 1.32-5.15 1.32-2.45 0-4.16-1.27-1.7-1.28-2.74-2.98m129.47 25.14q4.35 0 7.56-1.18t5.34-3.26q2.12-2.08 3.21-5.01t1.09-6.43q0-7.18-4.3-11.38-4.3-4.21-12.9-4.21t-12.9 4.21q-4.3 4.2-4.3 11.38 0 3.41 1.09 6.33 1.08 2.93 3.21 5.06t5.39 3.31 7.51 1.18m26.36 55.19q0-2.84-1.7-4.63-1.7-1.8-4.63-2.79t-6.85-1.47q-3.92-.47-8.31-.7-4.4-.24-9.08-.43-4.67-.19-9.12-.76-3.87 2.18-6.28 5.11t-2.41 6.8q0 2.55 1.28 4.77 1.27 2.22 4.06 3.83t7.23 2.5q4.44.9 10.87.9 6.52 0 11.24-.99 4.73-.99 7.8-2.74t4.49-4.16q1.41-2.41 1.41-5.24m-4.63-98h27.88v8.69q0 4.16-5.01 5.11l-8.69 1.6q1.98 5.01 1.98 10.97 0 7.18-2.88 12.99t-7.98 9.88q-5.11 4.06-12.05 6.28-6.95 2.22-14.98 2.22-2.84 0-5.48-.28-2.65-.29-5.2-.76-4.54 2.74-4.54 6.14 0 2.93 2.7 4.3 2.69 1.37 7.13 1.94t10.11.71 11.63.61q5.95.48 11.62 1.66t10.11 3.73 7.14 6.95q2.69 4.39 2.69 11.29 0 6.42-3.16 12.47-3.17 6.05-9.17 10.78-6 4.72-14.74 7.6t-19.9 2.88q-10.96 0-19.08-2.12-8.13-2.13-13.52-5.67-5.38-3.55-8.03-8.18t-2.65-9.63q0-6.81 4.11-11.39 4.11-4.59 11.3-7.33-3.88-1.98-6.15-5.29-2.26-3.31-2.26-8.69 0-2.18.8-4.49.8-2.32 2.36-4.58 1.56-2.27 3.92-4.3 2.37-2.04 5.58-3.64-7.37-3.97-11.58-10.59-4.2-6.61-4.2-15.49 0-7.19 2.88-13t8.03-9.92 12.19-6.28q7.04-2.18 15.36-2.18 6.24 0 11.72 1.28 5.48 1.27 10.01 3.73m61.05 34.02h44.04q0-4.54-1.28-8.55-1.27-4.02-3.82-7.04-2.56-3.03-6.48-4.77-3.92-1.75-9.12-1.75-10.11 0-15.92 5.76-5.81 5.77-7.42 16.35m59.54 14.08h-60.01q.57 7.47 2.64 12.9 2.08 5.43 5.49 8.98 3.4 3.54 8.08 5.29 4.67 1.75 10.34 1.75t9.78-1.33q4.11-1.32 7.19-2.92 3.07-1.61 5.38-2.93 2.32-1.33 4.49-1.33 2.93 0 4.35 2.18l6.71 8.5q-3.88 4.54-8.7 7.61t-10.06 4.91q-5.25 1.85-10.68 2.6-5.43.76-10.54.76-10.11 0-18.8-3.36-8.7-3.35-15.12-9.92-6.43-6.57-10.11-16.25-3.69-9.69-3.69-22.45 0-9.92 3.21-18.66 3.22-8.74 9.22-15.22 6-6.47 14.65-10.25 8.64-3.78 19.51-3.78 9.17 0 16.92 2.93 7.74 2.93 13.32 8.55 5.58 5.63 8.74 13.8 3.17 8.17 3.17 18.66 0 5.3-1.14 7.14-1.13 1.84-4.34 1.84"/></svg>